<?xml version="1.0" standalone="no"?>
<!DOCTYPE svg PUBLIC "-//W3C//DTD SVG 20010904//EN"
 "http://www.w3.org/TR/2001/REC-SVG-20010904/DTD/svg10.dtd">
<svg version="1.0" xmlns="http://www.w3.org/2000/svg"
 width="64.000000pt" height="64.000000pt" viewBox="0 0 64.000000 64.000000"
 preserveAspectRatio="xMidYMid meet">

<g transform="translate(0.000000,64.000000) scale(0.100000,-0.100000)"
fill="#000000" stroke="none">
<path d="M20 61 c0 -10 24 -21 47 -21 9 0 22 -8 29 -17 11 -16 34 -18 224 -18
190 0 213 2 224 18 7 9 20 17 29 17 23 0 47 11 47 21 0 5 -20 9 -44 9 -35 0
-45 -4 -49 -20 -7 -26 -37 -26 -44 0 -7 26 -19 26 -26 0 -5 -19 -14 -20 -137
-20 -123 0 -132 1 -137 20 -3 11 -9 20 -13 20 -4 0 -10 -9 -13 -20 -7 -26 -37
-26 -44 0 -4 16 -14 20 -49 20 -24 0 -44 -4 -44 -9z"/>
</g>
</svg>
