<?xml version="1.0" standalone="no"?>
<!DOCTYPE svg PUBLIC "-//W3C//DTD SVG 20010904//EN"
 "http://www.w3.org/TR/2001/REC-SVG-20010904/DTD/svg10.dtd">
<svg version="1.0" xmlns="http://www.w3.org/2000/svg"
 width="64.000000pt" height="64.000000pt" viewBox="0 0 64.000000 64.000000"
 preserveAspectRatio="xMidYMid meet">

<g transform="translate(0.000000,64.000000) scale(0.100000,-0.100000)"
fill="#000000" stroke="none">
<path d="M437 612 c-33 -35 -34 -42 -1 -73 l26 -24 -109 -6 -108 -5 124 -2
125 -2 -32 33 c-37 38 -39 48 -14 70 17 15 23 12 95 -61 l77 -77 -73 -73 c-40
-39 -77 -72 -83 -72 -6 0 -19 9 -28 19 -17 19 -16 21 21 55 l38 35 -85 -1
c-84 -2 -84 -2 -16 -5 l69 -4 -29 -30 -28 -29 31 -32 31 -31 87 84 86 84 -88
88 -89 87 -27 -28z"/>
</g>
</svg>
